:SAMPLES-PER-SECOND 30
:FULLY-SPECIFIED
:DEGREES
50
root  42.556 39.3485 -8.30072 172.981 -81.8801 -175.045
RightUpLeg  3.56369 -15.0123 -1.55554
RightLeg  19.8294 0.477832 2.71373
RightFoot  -15.6698 -0.16075 -1.44371
RightToes  5.82063e-011 0 -3.6325e-017
Spine  10.6293 0.606712 11.078
Spine1  10.9108 2.28691 -2.21516
HEad  -16.4662 5.3462 -4.84043
LeftShoulder1  9.08174 -13.5128 -46.5613
LeftArm  -2.95256 18.5738 -26.1418
LeftForeArm  25.7132 -19.9616 -3.90384
LeftHand  -0.244104 0.0205437 5.32207
RightShoulder  4.48862 7.91181 33.376
RightArm  2.11114 11.6987 39.9647
RightForeArm  8.2015 33.1576 6.89118
RightHand  -0.757021 1.26188 -13.3251
LeftUpLeg  -24.4314 4.86945 -0.20341
LeftLeg  29.215 2.27269 1.88839
LeftFoot  -2.13393 0.365155 -4.37557
LeftToes  -1.33699e-010 -8.10125e-011 -3.35536e-011
51
root  40.9972 39.324 -8.47829 173.519 -81.1681 -175.318
RightUpLeg  6.79276 -13.952 -2.36595
RightLeg  17.9665 0.463689 3.17423
RightFoot  -15.7649 -0.142542 -0.928171
RightToes  5.82063e-011 0 -3.6325e-017
Spine  9.71198 0.924193 10.9164
Spine1  11.1156 2.67029 -3.02965
HEad  -16.3578 5.7788 -5.0408
LeftShoulder1  9.0283 -13.4274 -46.5193
LeftArm  -3.62751 21.5527 -25.1839
LeftForeArm  25.5456 -18.5462 -4.179
LeftHand  -0.244104 0.0205437 5.32207
RightShoulder  4.44411 7.85452 33.1835
RightArm  4.69464 12.9515 40.7974
RightForeArm  9.20616 33.8212 7.00934
RightHand  -0.75706 1.35395 -13.1512
LeftUpLeg  -23.8008 7.38669 -0.860683
LeftLeg  16.5115 2.90675 0.41916
LeftFoot  -2.11592 0.402241 -4.82597
LeftToes  -1.33699e-010 -8.10125e-011 -3.35536e-011
52
root  39.3658 39.2395 -8.66137 175.024 -80.3642 -176.854
RightUpLeg  10.4577 -13.2061 -3.62136
RightLeg  16.0906 1.20596 3.65131
RightFoot  -16.0473 -0.09442 0.324292
RightToes  5.82063e-011 0 -3.6325e-017
Spine  8.92628 1.19223 10.1623
Spine1  11.7435 3.08598 -3.68104
HEad  -16.476 6.35825 -5.05623
LeftShoulder1  8.84682 -13.2042 -46.1825
LeftArm  -4.1756 24.2527 -24.6462
LeftForeArm  25.7851 -16.9468 -4.52833
LeftHand  -0.244104 0.0205437 5.32207
RightShoulder  4.46904 7.90689 33.222
RightArm  7.45004 13.7899 41.3552
RightForeArm  10.068 33.9539 6.99436
RightHand  -0.749758 1.34207 -13.0485
LeftUpLeg  -21.9311 4.58809 1.07458
LeftLeg  3.61901 10.3926 -3.02822
LeftFoot  -2.25944 0.422875 -5.16051
LeftToes  -1.33699e-010 -8.10125e-011 -3.35536e-011
53
root  37.6124 39.0007 -8.8195 174.71 -79.7104 -176.772
RightUpLeg  14.0547 -13.1434 -5.00346
RightLeg  15.376 2.82362 4.08708
RightFoot  -16.4837 -0.01482 2.15985
RightToes  5.82063e-011 0 -3.6325e-017
Spine  8.17037 1.36432 9.61331
Spine1  12.1332 3.36624 -4.13963
HEad  -16.5704 6.97489 -4.77963
LeftShoulder1  8.59788 -12.9641 -45.516
LeftArm  -4.99087 26.7488 -24.4568
LeftForeArm  26.763 -15.093 -4.88838
LeftHand  -0.244104 0.0205437 5.32207
RightShoulder  4.51649 7.96729 33.4288
RightArm  10.077 13.9636 41.9166
RightForeArm  10.6253 33.3672 6.80602
RightHand  -0.71961 1.18569 -12.8167
LeftUpLeg  -20.6396 2.29236 2.5333
LeftLeg  -5.20704 17.7437 -6.35433
LeftFoot  -3.89795 0.353803 -5.04693
LeftToes  -1.33699e-010 -8.10125e-011 -3.35536e-011
54
root  35.7548 38.6752 -8.93929 173.72 -79.5122 -175.949
RightUpLeg  17.1655 -13.9132 -6.53969
RightLeg  16.0173 4.93391 4.23884
RightFoot  -16.3915 0.060162 3.89044
RightToes  5.82063e-011 0 -3.6325e-017
Spine  7.43865 1.37686 9.29693
Spine1  12.1667 3.50951 -4.6337
HEad  -16.6154 7.38199 -4.22096
LeftShoulder1  8.40958 -12.8319 -44.8544
LeftArm  -5.89529 28.9827 -24.188
LeftForeArm  28.4299 -13.2308 -5.12117
LeftHand  -0.244104 0.0205437 5.32207
RightShoulder  4.52668 7.92576 33.6598
RightArm  12.2058 13.273 42.6704
RightForeArm  10.7413 32.0391 6.45472
RightHand  -0.679658 1.01085 -12.4336
LeftUpLeg  -21.3618 2.66003 2.27825
LeftLeg  -5.44278 22.114 -7.05003
LeftFoot  -6.20592 0.206996 -3.75501
LeftToes  -1.33699e-010 -8.10125e-011 -3.35536e-011
55
root  33.8096 38.3426 -9.04288 175.711 -79.5119 -178.136
RightUpLeg  19.9591 -15.2081 -8.98036
RightLeg  17.5472 7.62841 4.11695
RightFoot  -15.8362 0.14482 6.3372
RightToes  5.82063e-011 0 -3.6325e-017
Spine  6.73543 1.47698 8.26484
Spine1  12.2925 3.7348 -5.06931
HEad  -16.8874 7.44915 -3.54322
LeftShoulder1  8.30095 -12.716 -44.5792
LeftArm  -6.49769 30.566 -23.4405
LeftForeArm  30.1292 -11.477 -5.22549
LeftHand  -0.244104 0.0205437 5.32207
RightShoulder  4.57261 7.92166 34.0713
RightArm  13.6328 11.6347 43.1863
RightForeArm  10.5746 30.1789 5.99913
RightHand  -0.664169 0.990034 -12.1963
LeftUpLeg  -22.6084 3.09717 1.07932
LeftLeg  -0.215352 25.0846 -5.37882
LeftFoot  -4.93202 0.0409883 -0.39457
LeftToes  -1.33699e-010 -8.10125e-011 -3.35536e-011
56
root  31.7574 37.9739 -9.16586 -178.473 -79.2824 175.506
RightUpLeg  22.1858 -15.4061 -12.0914
RightLeg  20.4683 9.68212 4.0293
RightFoot  -14.6737 0.200364 10.6415
RightToes  5.82063e-011 0 -3.6325e-017
Spine  6.04834 1.99523 6.11765
Spine1  12.4263 4.08577 -5.02903
HEad  -17.485 7.22293 -2.80848
LeftShoulder1  8.21308 -12.4995 -44.709
LeftArm  -6.72809 31.1127 -22.1899
LeftForeArm  30.891 -9.64448 -5.27693
LeftHand  -0.244104 0.0205437 5.32207
RightShoulder  4.76448 8.16188 34.8794
RightArm  14.3955 9.01108 43.1688
RightForeArm  9.88596 27.6315 5.38483
RightHand  -0.72809 1.36226 -12.6315
LeftUpLeg  -24.5809 7.47234 -2.76597
LeftLeg  8.84936 20.9772 -1.10174
LeftFoot  -0.542566 -0.323413 3.39385
LeftToes  -1.33699e-010 -8.10125e-011 -3.35536e-011
57
root  29.7087 37.713 -9.31144 -169.45 -79.33 165.725
RightUpLeg  22.3437 -12.6243 -13.9461
RightLeg  25.7332 7.53462 3.63818
RightFoot  -9.85953 -0.268536 14.7555
RightToes  5.82063e-011 0 -3.6325e-017
Spine  5.85316 2.49708 3.26717
Spine1  12.0998 4.3612 -4.85204
HEad  -18.0585 6.67472 -1.97638
LeftShoulder1  8.16589 -12.3353 -44.9207
LeftArm  -6.68466 30.6089 -20.7809
LeftForeArm  30.3006 -7.70489 -5.2392
LeftHand  -0.244104 0.0205437 5.32207
RightShoulder  5.0287 8.54509 35.7609
RightArm  13.8819 5.6566 43.2994
RightForeArm  8.93188 23.5084 4.87018
RightHand  -0.910208 2.33209 -13.8243
LeftUpLeg  -26.2714 15.6523 -9.32994
LeftLeg  16.2489 9.79977 2.71921
LeftFoot  3.62686 -0.824803 6.16632
LeftToes  -1.33699e-010 -8.10125e-011 -3.35536e-011
58
root  27.7766 37.582 -9.41673 -159.737 -79.9177 155.251
RightUpLeg  19.3967 -9.4014 -14.2275
RightLeg  34.6625 3.28143 2.15136
RightFoot  0.386485 -1.47114 14.6999
RightToes  5.82063e-011 0 -3.6325e-017
Spine  6.5238 2.54095 1.34785
Spine1  11.0456 4.46737 -5.42645
HEad  -18.3561 5.72864 -1.28127
LeftShoulder1  8.23926 -12.4475 -45.0098
LeftArm  -6.63494 29.1906 -19.6297
LeftForeArm  29.1823 -6.09163 -5.11486
LeftHand  -0.244104 0.0205437 5.32207
RightShoulder  5.17561 8.80649 36.0615
RightArm  7.98561 2.51772 44.2212
RightForeArm  12.8133 16.8446 5.88757
RightHand  -1.11105 3.37605 -14.8985
LeftUpLeg  -26.2239 15.1826 -11.3352
LeftLeg  22.3678 7.98381 4.07128
LeftFoot  3.19968 -0.9876 7.60132
LeftToes  -1.33699e-010 -8.10125e-011 -3.35536e-011
59
root  26.0933 37.4712 -9.44858 -150.252 -80.306 144.958
RightUpLeg  13.9825 -6.58864 -13.9378
RightLeg  45.7642 0.0873526 -0.215181
RightFoot  11.1548 -2.09201 10.8759
RightToes  5.82063e-011 0 -3.6325e-017
Spine  8.01872 2.3337 0.454825
Spine1  10.1445 4.5538 -6.91005
HEad  -18.7477 4.63852 -1.16866
LeftShoulder1  8.42541 -12.753 -45.1685
LeftArm  -6.96085 26.7871 -18.9891
LeftForeArm  28.6056 -5.39017 -5.03833
LeftHand  -0.244104 0.0205437 5.32207
RightShoulder  5.19011 8.95279 35.6921
RightArm  -2.68577 0.628721 45.4602
RightForeArm  22.9456 8.73049 7.26793
RightHand  -1.14353 3.51839 -15.0762
LeftUpLeg  -24.9314 13.6006 -12.3983
LeftLeg  27.3032 8.79545 5.23805
LeftFoot  -0.975145 -0.732895 8.11935
LeftToes  -1.33699e-010 -8.10125e-011 -3.35536e-011
60
root  24.5876 37.4505 -9.45161 -142.973 -80.048 136.639
RightUpLeg  7.88329 -4.08491 -13.7832
RightLeg  56.2694 -1.66296 -3.12567
RightFoot  15.1796 -1.53119 6.85311
RightToes  5.82063e-011 0 -3.6325e-017
Spine  9.74229 2.16146 -0.380365
Spine1  10.1885 4.59727 -8.06492
HEad  -19.7515 3.92351 -1.65009
LeftShoulder1  8.62559 -12.9712 -45.6479
LeftArm  -7.58367 23.3392 -18.8994
LeftForeArm  28.5321 -5.93648 -5.0885
LeftHand  -0.244104 0.0205437 5.32207
RightShoulder  5.22583 9.17212 35.2609
RightArm  -5.9569 -0.056055 46.2585
RightForeArm  27.9571 3.26234 6.24398
RightHand  -1.07472 3.02025 -15.0007
LeftUpLeg  -22.4368 12.9618 -13.4769
LeftLeg  30.0758 9.44807 6.2074
LeftFoot  -5.17458 -0.405673 8.0814
LeftToes  -1.33699e-010 -8.10125e-011 -3.35536e-011
61
root  23.0942 37.6478 -9.46324 -138.571 -80.0348 131.124
RightUpLeg  1.95564 -2.42987 -13.2773
RightLeg  64.2668 -2.61231 -6.4743
RightFoot  12.558 -0.664445 3.52062
RightToes  5.82063e-011 0 -3.6325e-017
Spine  11.104 1.84095 -1.14802
Spine1  10.8191 4.27111 -7.91118
HEad  -21.1866 3.82334 -2.16464
LeftShoulder1  8.78973 -13.0445 -46.332
LeftArm  -8.28029 19.2217 -19.2548
LeftForeArm  28.7765 -7.6942 -5.27133
LeftHand  -0.244104 0.0205437 5.32207
RightShoulder  5.31486 9.40754 35.1998
RightArm  -6.35032 -0.670974 45.7916
RightForeArm  29.5097 2.08143 5.88831
RightHand  -1.13411 3.05146 -15.7378
LeftUpLeg  -18.797 12.5512 -13.8347
LeftLeg  30.6371 9.57883 6.42324
LeftFoot  -7.82496 -0.18212 7.43405
LeftToes  -1.33699e-010 -8.10125e-011 -3.35536e-011
62
root  21.642 37.9326 -9.4761 -134.165 -80.8394 125.97
RightUpLeg  -4.01186 -1.757 -12.2125
RightLeg  68.8714 -2.82499 -8.78426
RightFoot  7.90046 -0.21848 1.63434
RightToes  5.82063e-011 0 -3.6325e-017
Spine  12.0268 1.24233 -1.55609
Spine1  11.377 3.44084 -6.96109
HEad  -22.254 4.15409 -2.30025
LeftShoulder1  8.94416 -13.1383 -46.8946
LeftArm  -8.15542 15.0629 -19.998
LeftForeArm  28.9723 -10.4967 -5.45106
LeftHand  -0.244104 0.0205437 5.32207
RightShoulder  5.31529 9.38619 35.2704
RightArm  -5.43184 -2.25008 44.5606
RightForeArm  25.6669 5.25096 6.52591
RightHand  -1.33611 3.83119 -16.966
LeftUpLeg  -15.0405 11.9127 -13.4705
LeftLeg  30.1767 9.35578 6.17932
LeftFoot  -9.89082 -0.0199751 6.23088
LeftToes  -1.33699e-010 -8.10125e-011 -3.35536e-011
63
root  20.2411 38.1722 -9.47313 -128.044 -81.9804 119.586
RightUpLeg  -10.0432 -1.67935 -11.1098
RightLeg  69.9996 -2.8286 -9.4223
RightFoot  4.54662 -0.0581363 0.643254
RightToes  5.82063e-011 0 -3.6325e-017
Spine  12.5922 0.50708 -1.72295
Spine1  11.6248 2.32781 -5.97035
HEad  -22.466 4.67398 -2.24112
LeftShoulder1  9.0926 -13.2942 -47.2384
LeftArm  -5.79392 11.1969 -21.0701
LeftForeArm  28.0579 -14.2268 -5.23588
LeftHand  -0.244104 0.0205437 5.32207
RightShoulder  5.16179 9.08014 35.0561
RightArm  -1.6333 -4.60355 43.3246
RightForeArm  15.8453 11.448 7.0886
RightHand  -1.57861 4.84629 -18.049
LeftUpLeg  -11.6859 11.3696 -12.8873
LeftLeg  29.4577 8.94458 5.77291
LeftFoot  -12.0492 0.106525 5.31208
LeftToes  -1.33699e-010 -8.10125e-011 -3.35536e-011
64
root  18.8208 38.3888 -9.45539 -121.124 -82.9815 112.629
RightUpLeg  -15.3594 -2.1279 -10.2669
RightLeg  67.6445 -3.29772 -9.48891
RightFoot  2.07699 0.034063 -0.161518
RightToes  5.82063e-011 0 -3.6325e-017
Spine  12.8789 -0.214397 -1.84207
Spine1  11.6789 1.14809 -4.92088
HEad  -22.0722 5.27225 -2.32334
LeftShoulder1  9.19922 -13.401 -47.4955
LeftArm  -1.74129 7.55153 -22.2333
LeftForeArm  26.0731 -18.5835 -4.41296
LeftHand  -0.244104 0.0205437 5.32207
RightShoulder  4.96688 8.76271 34.5376
RightArm  6.05228 -7.00604 42.2989
RightForeArm  2.88182 19.2576 5.8624
RightHand  -1.77938 5.63815 -18.8731
LeftUpLeg  -8.43532 11.1015 -12.233
LeftLeg  28.4201 8.35111 5.21517
LeftFoot  -13.9569 0.20132 5.11097
LeftToes  -1.33699e-010 -8.10125e-011 -3.35536e-011
